
<svg width="130" viewBox="0 0 249 86" fill="none" xmlns="http://www.w3.org/2000/svg">
<path d="M29.9365 29.5215C26.2738 33.1842 24.4424 37.6048 24.4424 42.7832C24.4424 47.9616 26.2738 52.3822 29.9365 56.0449C33.5993 59.7077 38.0199 61.5391 43.1982 61.5391C48.3766 61.5391 52.7972 59.7077 56.46 56.0449C60.1227 52.3822 61.9541 47.9616 61.9541 42.7832C61.9541 37.6048 60.1227 33.1842 56.46 29.5215C52.7972 25.8587 48.3766 24.0273 43.1982 24.0273C38.0199 24.0273 33.5993 25.8587 29.9365 29.5215ZM22.7847 51.4033C21.6164 48.6562 21.0322 45.7829 21.0322 42.7832C21.0322 39.7835 21.6164 36.9259 22.7847 34.2104C23.953 31.4634 25.5317 29.0952 27.521 27.106C29.5103 25.1167 31.8626 23.5379 34.5781 22.3696C37.3252 21.2013 40.1986 20.6172 43.1982 20.6172C46.1979 20.6172 49.0555 21.2013 51.771 22.3696C54.5181 23.5379 56.8862 25.1167 58.8755 27.106C60.8647 29.0952 62.4435 31.4634 63.6118 34.2104C64.7801 36.9259 65.3643 39.7835 65.3643 42.7832C65.3643 45.7829 64.7801 48.6562 63.6118 51.4033C62.4435 54.1188 60.8647 56.4712 58.8755 58.4604C56.8862 60.4497 54.5181 62.0285 51.771 63.1968C49.0555 64.3651 46.1979 64.9492 43.1982 64.9492C40.1986 64.9492 37.3252 64.3651 34.5781 63.1968C31.8626 62.0285 29.5103 60.4497 27.521 58.4604C25.5317 56.4712 23.953 54.1188 22.7847 51.4033ZM21.0322 29.9478C18.7588 33.8631 17.6221 38.1416 17.6221 42.7832C17.6221 47.4248 18.7588 51.7033 21.0322 55.6187C23.3372 59.534 26.4474 62.6442 30.3628 64.9492C34.2782 67.2227 38.5566 68.3594 43.1982 68.3594C47.8398 68.3594 52.1183 67.2227 56.0337 64.9492C59.9491 62.6442 63.0435 59.534 65.3169 55.6187C67.6219 51.7033 68.7744 47.4248 68.7744 42.7832C68.7744 38.1416 67.6219 33.8631 65.3169 29.9478C63.0435 26.0324 59.9491 22.938 56.0337 20.6646C52.1183 18.3595 47.8398 17.207 43.1982 17.207C38.5566 17.207 34.2782 18.3595 30.3628 20.6646C26.4474 22.938 23.3372 26.0324 21.0322 29.9478ZM18.0957 57.3237C15.5065 52.8716 14.2119 48.0247 14.2119 42.7832C14.2119 37.5417 15.5065 32.6948 18.0957 28.2427C20.6849 23.7905 24.2056 20.2699 28.6577 17.6807C33.1099 15.0915 37.9567 13.7969 43.1982 13.7969C48.4398 13.7969 53.2866 15.0915 57.7388 17.6807C62.1909 20.2699 65.7116 23.7905 68.3008 28.2427C70.89 32.6948 72.1846 37.5417 72.1846 42.7832C72.1846 48.0247 70.89 52.8716 68.3008 57.3237C65.7116 61.7759 62.1909 65.2965 57.7388 67.8857C53.2866 70.4749 48.4398 71.7695 43.1982 71.7695C37.9567 71.7695 33.1099 70.4749 28.6577 67.8857C24.2056 65.2965 20.6849 61.7759 18.0957 57.3237ZM13.3594 30.1846C11.6543 34.1947 10.8018 38.3942 10.8018 42.7832C10.8018 47.1722 11.6543 51.3717 13.3594 55.3818C15.0645 59.3919 17.3537 62.8494 20.2271 65.7544C23.132 68.6278 26.5895 70.917 30.5996 72.6221C34.6097 74.3271 38.8092 75.1797 43.1982 75.1797C47.5872 75.1797 51.7868 74.3271 55.7969 72.6221C59.807 70.917 63.2487 68.6278 66.1221 65.7544C69.027 62.8494 71.332 59.3919 73.0371 55.3818C74.7422 51.3717 75.5947 47.1722 75.5947 42.7832C75.5947 38.3942 74.7422 34.1947 73.0371 30.1846C71.332 26.1745 69.027 22.7327 66.1221 19.8594C63.2487 16.9544 59.807 14.6494 55.7969 12.9443C51.7868 11.2393 47.5872 10.3867 43.1982 10.3867C38.8092 10.3867 34.6097 11.2393 30.5996 12.9443C26.5895 14.6494 23.132 16.9544 20.2271 19.8594C17.3537 22.7327 15.0645 26.1745 13.3594 30.1846ZM12.1753 60.7339C8.98617 55.2397 7.3916 49.2562 7.3916 42.7832C7.3916 36.3102 8.98617 30.3267 12.1753 24.8325C15.396 19.3384 19.7534 14.9967 25.2476 11.8076C30.7417 8.58691 36.7253 6.97656 43.1982 6.97656C49.6712 6.97656 55.6548 8.58691 61.1489 11.8076C66.6431 14.9967 70.9847 19.3384 74.1738 24.8325C77.3945 30.3267 79.0049 36.3102 79.0049 42.7832C79.0049 49.2562 77.3945 55.2397 74.1738 60.7339C70.9847 66.228 66.6431 70.5854 61.1489 73.8062C55.6548 76.9953 49.6712 78.5898 43.1982 78.5898C36.7253 78.5898 30.7417 76.9953 25.2476 73.8062C19.7534 70.5854 15.396 66.228 12.1753 60.7339ZM7.06006 27.5796C5.00765 32.4106 3.98145 37.4785 3.98145 42.7832C3.98145 48.0879 5.00765 53.1715 7.06006 58.0342C9.14404 62.8652 11.9385 67.0332 15.4434 70.5381C18.9482 74.043 23.1162 76.8374 27.9473 78.9214C32.8099 80.9738 37.8936 82 43.1982 82C48.5029 82 53.5708 80.9738 58.4019 78.9214C63.2645 76.8374 67.4482 74.043 70.9531 70.5381C74.458 67.0332 77.2367 62.8652 79.2891 58.0342C81.373 53.1715 82.415 48.0879 82.415 42.7832C82.415 37.4785 81.373 32.4106 79.2891 27.5796C77.2367 22.717 74.458 18.5332 70.9531 15.0283C67.4482 11.5234 63.2645 8.74479 58.4019 6.69238C53.5708 4.6084 48.5029 3.56641 43.1982 3.56641C37.8936 3.56641 32.8099 4.6084 27.9473 6.69238C23.1162 8.74479 18.9482 11.5234 15.4434 15.0283C11.9385 18.5332 9.14404 22.717 7.06006 27.5796ZM3.93408 59.3604C1.69222 54.0872 0.571289 48.5615 0.571289 42.7832C0.571289 37.0049 1.69222 31.495 3.93408 26.2534C6.20752 20.9803 9.23877 16.4492 13.0278 12.6602C16.8485 8.83952 21.3796 5.80827 26.6211 3.56641C31.8942 1.29297 37.4199 0.15625 43.1982 0.15625C48.9766 0.15625 54.4865 1.29297 59.728 3.56641C65.0011 5.80827 69.5322 8.83952 73.3213 12.6602C77.1419 16.4492 80.1732 20.9803 82.415 26.2534C84.6885 31.495 85.8252 37.0049 85.8252 42.7832C85.8252 48.5615 84.6885 54.0872 82.415 59.3604C80.1732 64.6019 77.1419 69.133 73.3213 72.9536C69.5322 76.7427 65.0011 79.7581 59.728 82C54.4865 84.2734 48.9766 85.4102 43.1982 85.4102C37.4199 85.4102 31.8942 84.2734 26.6211 82C21.3796 79.7581 16.8485 76.7427 13.0278 72.9536C9.23877 69.133 6.20752 64.6019 3.93408 59.3604ZM116.659 39.6099L114.622 42.8306L89.9458 3.56641H93.9717L116.659 39.6099ZM133.473 65.2334L135.462 62.0127L148.061 82H144.035L133.473 65.2334ZM120.685 33.2632L118.648 36.4365L97.9976 3.56641H101.976L120.685 33.2632ZM137.499 58.8394L139.488 55.6187L156.112 82H152.086L137.499 58.8394ZM124.71 26.8218L122.721 29.9951L106.049 3.56641H110.075L124.71 26.8218ZM141.572 52.3979L143.561 49.1772L164.211 82H160.186L141.572 52.3979ZM128.736 20.4277L126.747 23.6484L114.101 3.56641H118.127L128.736 20.4277ZM145.55 46.0039L147.54 42.7832L172.263 82H168.237L145.55 46.0039ZM165.869 3.56641H169.895L120.542 82H116.517L165.869 3.56641ZM157.865 3.56641H161.843L112.491 82H108.465L157.865 3.56641ZM149.766 3.56641H153.792L104.392 82H100.366L149.766 3.56641ZM141.714 3.56641H145.74L96.3398 82H92.314L141.714 3.56641ZM204.186 42.5464L202.481 46.2881L182.02 3.56641H185.43L204.186 42.5464ZM207.596 35.063L205.844 38.8047L188.84 3.56641H192.25L207.596 35.063ZM211.006 27.627L209.301 31.3687L195.661 3.56641H199.071L211.006 27.627ZM206.696 55.5713L231.373 3.56641H234.783L210.106 55.5713V82H206.696V55.5713ZM213.517 55.5713L238.193 3.56641H241.603L216.927 55.5713V82H213.517V55.5713ZM220.337 55.5713L245.013 3.56641H248.423L223.747 55.5713V82H220.337V55.5713ZM201.581 51.9717L224.552 3.56641H227.962L203.286 55.5713V82H199.876V55.5713L175.2 3.56641H178.61L201.581 51.9717Z" fill="url(#paint0_linear_201_932)"/>
<defs>
<linearGradient id="paint0_linear_201_932" x1="124" y1="-5" x2="124" y2="96" gradientUnits="userSpaceOnUse">
<stop stop-color="#fff"/>
<stop offset="1" stop-color="#fff"/>
</linearGradient>
</defs>
</svg>
